<svg xmlns="http://www.w3.org/2000/svg" viewBox="0 -30 180.48 180.01">
  <defs>
    <style>
      .icon-accent { fill: #ff0000; }
      .icon-light { fill: #fffdfd; }
    </style>
  </defs>
  <path class="icon-accent" d="M0,75c0,71.27.02,75,.42,75.01.23,0,.64-.22.9-.49.26-.27.61-.49.78-.49.17.01.3-.1.3-.23s.19-.29.42-.35c.23-.07.64-.31.91-.54.26-.24,1.02-.8,1.68-1.26.65-.46,1.33-.97,1.51-1.14.17-.17.47-.31.66-.31s.34-.08.34-.18.57-.56,1.26-1.02c.69-.46,1.47-1.03,1.74-1.26.26-.24.53-.42.6-.42.07,0,.39-.2.72-.47.33-.26.73-.59.9-.73.16-.13.38-.24.48-.24s.48-.27.84-.6.71-.6.78-.6.93-.59,1.92-1.32c.99-.73,1.91-1.32,2.04-1.32s.24-.11.24-.24.19-.29.42-.35c.23-.07.64-.31.91-.54.26-.24,1.02-.8,1.68-1.26.65-.46,1.33-.97,1.51-1.14.17-.17.44-.31.6-.31.15,0,.44-.21.64-.48.2-.27.44-.48.54-.48s.53-.24.95-.54c.42-.3.99-.73,1.26-.96.27-.24.56-.43.65-.42.09,0,.31-.13.48-.3.18-.17.89-.68,1.58-1.14.69-.46,1.26-.92,1.26-1.02s.11-.18.24-.18,1.05-.59,2.04-1.32c.99-.73,1.91-1.32,2.04-1.32s.24-.11.24-.24.19-.29.42-.36c.23-.06.71-.36,1.07-.66.36-.3,1.05-.81,1.52-1.14.47-.33,1.01-.73,1.19-.9.26-.24,14.61-.3,70.06-.3h69.74V0H0v75Z"/>
  <path class="icon-light" d="M110.16,30.96v15.36h17.04v-14.88h7.44c-.21,1.77-.44,3.09-.63,4.08-.2.99-.79,3.53-1.32,5.64-.52,2.11-1.33,5.24-1.8,6.96-.47,1.72-2.29,8.25-4.05,14.52-1.76,6.27-3.8,13.61-4.53,16.32-.73,2.71-1.87,7.13-2.53,9.84-.66,2.71-1.47,6.38-1.79,8.16-.32,1.78-.64,3.91-.72,4.74l-.15,1.5h17.16c.3-2.51.76-4.91,1.22-6.96.45-2.05,1.48-6.15,2.28-9.12.8-2.97,2.97-10.8,4.81-17.4,1.85-6.6,4.05-14.59,4.89-17.76.83-3.17,1.91-7.43,2.39-9.48.48-2.05,1.09-4.93,1.34-6.42.41-2.34.47-3.87.47-11.58v-8.88h-41.52v15.36ZM88,15.78c-.06.1-5.41,13.92-11.89,30.72l-11.79,30.54v14.88h23.76v11.28h17.04v-11.28h3.36v-14.88h-3.36V15.6c-13.19,0-17.06.08-17.12.18ZM36.12,14.65c-1.06.12-2.78.44-3.84.71-1.06.27-3.05,1.04-4.44,1.72-2.2,1.08-2.8,1.51-4.69,3.42-1.36,1.36-2.46,2.72-2.93,3.62-.42.79-.98,2.3-1.25,3.36-.45,1.76-.5,2.62-.49,10.38v8.46h17.04c.12-16.29.14-16.72.63-17.64.37-.7.78-1.08,1.56-1.4.78-.33,1.33-.4,2.13-.27.75.11,1.31.4,1.83.92.41.41.87,1.18,1.02,1.71.16.59.27,3.23.27,6.84v5.88c-1.06,2.23-1.84,3.47-2.41,4.2-.57.73-1.75,2.03-2.62,2.89-.86.86-3.89,3.63-6.73,6.14-2.84,2.52-6.01,5.48-7.05,6.59-1.05,1.11-2.36,2.67-2.93,3.46-.56.79-1.38,2.2-1.82,3.12l-.8,1.68-.12,32.76h41.52l-.12-30.6h-16.8l-.12,15h-7.44c.02-8.71.11-10.2.37-10.92.19-.53.7-1.54,1.13-2.24.43-.71,1.7-2.22,2.83-3.36,1.12-1.15,4.04-3.81,6.48-5.92,2.44-2.11,5.38-4.75,6.55-5.88,1.17-1.12,2.76-2.85,3.54-3.84.78-.99,1.73-2.34,2.11-3,.37-.66.89-1.79,1.14-2.52.41-1.21.45-2.12.45-10.92,0-7.26-.08-9.92-.32-10.92-.18-.73-.77-2.24-1.31-3.36-.77-1.63-1.37-2.43-2.91-3.98-1.07-1.08-2.69-2.39-3.62-2.94-.92-.54-2.54-1.3-3.6-1.69-1.06-.39-2.73-.87-3.72-1.07-.99-.2-2.88-.42-4.2-.48-1.32-.07-3.26-.02-4.32.09ZM164.04,6.94c-.81.31-1.58.88-2.36,1.74-.76.85-1.27,1.69-1.5,2.48-.19.66-.34,1.52-.34,1.92s.15,1.26.35,1.92c.19.67.75,1.67,1.26,2.25.5.58,1.45,1.33,2.11,1.67.94.48,1.56.61,2.88.62,1.32,0,1.94-.12,2.86-.59.66-.32,1.6-1.08,2.11-1.67.51-.59,1.1-1.62,1.31-2.28.25-.78.34-1.66.27-2.52-.07-.73-.31-1.7-.54-2.16-.23-.46-.82-1.25-1.3-1.76-.48-.51-1.3-1.14-1.83-1.42-.59-.3-1.56-.53-2.52-.58-1.13-.06-1.89.04-2.76.38Z"/>
  <path class="icon-accent" d="M83.86,66.12l-4.11,10.8c6.36.09,8.23.09,8.27.06.03-.03.03-4.92,0-10.86l-.06-10.8-4.1,10.8Z"/>
</svg>